<svg xmlns="http://www.w3.org/2000/svg" width="823" height="899" viewBox="0 0 823 899"><rect width="100%" height="100%" fill="#DDDDDD"/><path fill="#999999" d="M196.035 479.255q3.33 0 5.83-.95 2.51-.95 4.23-2.64 1.71-1.69 2.59-4.04.87-2.34.87-5.06 0-6.49-3.6-9.82-3.59-3.32-9.92-3.32-6.32 0-9.92 3.32-3.59 3.33-3.59 9.82 0 2.72.87 5.06.87 2.35 2.59 4.04 1.71 1.69 4.22 2.64t5.83.95m0-59.89q-2.99 0-5.17.92-2.18.93-3.63 2.48-1.44 1.56-2.12 3.57-.69 2.02-.69 4.26 0 2.34.58 4.55.57 2.2 1.93 3.92t3.6 2.75q2.23 1.04 5.5 1.04t5.51-1.04q2.23-1.03 3.59-2.75 1.37-1.72 1.94-3.92.57-2.21.57-4.55 0-2.24-.71-4.26-.71-2.01-2.12-3.57-1.42-1.55-3.6-2.48-2.18-.92-5.18-.92m13.3 28.45q7.19 2.34 10.63 7.16 3.43 4.83 3.43 11.8 0 5.24-1.99 9.49t-5.58 7.24q-3.6 3-8.64 4.64-5.04 1.63-11.15 1.63-6.1 0-11.14-1.63-5.04-1.64-8.64-4.64-3.6-2.99-5.59-7.24t-1.99-9.49q0-6.97 3.44-11.8 3.43-4.82 10.63-7.16-5.73-2.4-8.59-6.82-2.86-4.41-2.86-10.62 0-4.47 1.83-8.34 1.82-3.87 5.09-6.73t7.82-4.47 10-1.61 10 1.61 7.82 4.47 5.1 6.73 1.83 8.34q0 6.21-2.87 10.62-2.86 4.42-8.58 6.82m51.56 28.55h20.22q2.18 0 3.46 1.23t1.28 3.24v8.07h-54.07v-4.47q0-1.36.58-2.86.57-1.5 1.82-2.7l23.93-23.98q3-3.05 5.37-5.83t3.95-5.5q1.58-2.73 2.42-5.54.85-2.8.85-5.91 0-2.83-.82-4.99-.82-2.15-2.32-3.62-1.49-1.47-3.59-2.21-2.1-.73-4.72-.73-2.4 0-4.44.68t-3.62 1.91q-1.58 1.22-2.67 2.86-1.09 1.63-1.64 3.59-.92 2.51-2.4 3.33-1.47.82-4.25.38l-7.08-1.25q.81-5.67 3.16-9.95 2.34-4.28 5.86-7.14 3.51-2.86 8.06-4.3 4.55-1.45 9.79-1.45 5.45 0 9.97 1.61t7.74 4.55q3.21 2.94 5.01 7.08 1.8 4.15 1.8 9.21 0 4.36-1.28 8.07t-3.43 7.09q-2.16 3.37-5.04 6.54-2.89 3.16-6.05 6.43l-17.77 18.15q2.56-.77 5.09-1.18 2.54-.41 4.83-.41m42.94-43.05-7.08-1.25q.82-5.67 3.16-9.95t5.86-7.14q3.51-2.86 8.06-4.3 4.56-1.45 9.79-1.45 5.45 0 9.83 1.55 4.39 1.56 7.5 4.31 3.1 2.75 4.77 6.46 1.66 3.7 1.66 8.01 0 3.76-.85 6.62-.84 2.86-2.42 4.99-1.58 2.12-3.92 3.59-2.35 1.48-5.29 2.46 7.08 2.23 10.57 6.81t3.49 11.5q0 5.89-2.18 10.41t-5.89 7.6q-3.7 3.08-8.58 4.66t-10.33 1.58q-5.94 0-10.35-1.36-4.42-1.36-7.69-4.03t-5.56-6.54-3.92-8.94l5.94-2.45q2.34-.98 4.39-.52 2.04.46 2.97 2.21.98 1.9 2.15 3.76 1.17 1.85 2.81 3.29 1.63 1.45 3.84 2.35t5.26.9q3.43 0 5.99-1.12 2.57-1.12 4.28-2.92 1.72-1.8 2.56-4 .85-2.21.85-4.44 0-2.84-.6-5.15-.6-2.32-2.51-3.96-1.91-1.63-5.48-2.56-3.57-.92-9.56-.92v-9.6q4.96-.05 8.23-.92t5.2-2.43q1.94-1.55 2.7-3.73t.76-4.8q0-5.56-3.1-8.44-3.11-2.89-8.29-2.89-2.39 0-4.41.68t-3.62 1.91q-1.61 1.22-2.7 2.86-1.09 1.63-1.64 3.59-.92 2.51-2.42 3.33t-4.23.38m134.07 37.55-7.14 7.03-18.47-18.47-18.64 18.58-7.14-7.03 18.64-18.69-17.77-17.77 7.09-7.09 17.76 17.77 17.66-17.66 7.2 7.09-17.72 17.71zm63.99 8.39q3.32 0 5.83-.95t4.22-2.64q1.72-1.69 2.59-4.04.87-2.34.87-5.06 0-6.49-3.59-9.82-3.6-3.32-9.92-3.32-6.33 0-9.92 3.32-3.6 3.33-3.6 9.82 0 2.72.87 5.06.87 2.35 2.59 4.04t4.23 2.64q2.5.95 5.83.95m0-59.89q-3 0-5.18.92-2.18.93-3.62 2.48-1.45 1.56-2.13 3.57-.68 2.02-.68 4.26 0 2.34.57 4.55.57 2.2 1.94 3.92 1.36 1.72 3.59 2.75 2.24 1.04 5.51 1.04t5.5-1.04q2.24-1.03 3.6-2.75t1.93-3.92q.58-2.21.58-4.55 0-2.24-.71-4.26-.71-2.01-2.13-3.57-1.42-1.55-3.6-2.48-2.18-.92-5.17-.92m13.29 28.45q7.2 2.34 10.63 7.16 3.44 4.83 3.44 11.8 0 5.24-1.99 9.49t-5.59 7.24q-3.6 3-8.64 4.64-5.04 1.63-11.14 1.63-6.11 0-11.15-1.63-5.04-1.64-8.64-4.64-3.59-2.99-5.58-7.24t-1.99-9.49q0-6.97 3.43-11.8 3.43-4.82 10.63-7.16-5.72-2.4-8.58-6.82-2.87-4.41-2.87-10.62 0-4.47 1.83-8.34t5.1-6.73 7.82-4.47 10-1.61 10 1.61 7.82 4.47 5.09 6.73q1.83 3.87 1.83 8.34 0 6.21-2.86 10.62-2.86 4.42-8.59 6.82m36.3-14.06q0 6.59 3.41 10.05 3.4 3.46 9.67 3.46 3.27 0 5.83-1.03 2.56-1.04 4.31-2.84 1.74-1.8 2.64-4.25t.9-5.29q0-3.21-.98-5.74-.98-2.54-2.78-4.28-1.8-1.75-4.28-2.67-2.48-.93-5.42-.93-3.05 0-5.5 1.01-2.46 1.01-4.2 2.8-1.75 1.8-2.67 4.28-.93 2.48-.93 5.43m-6.59 55.15 24.47-30.57q.92-1.15 1.74-2.24t1.58-2.18q-2.72 1.75-5.99 2.64-3.27.9-6.87.9-4.09 0-8.01-1.41-3.93-1.42-6.98-4.28t-4.93-7.09q-1.88-4.22-1.88-9.89 0-5.29 1.96-9.92t5.51-8.12q3.54-3.49 8.5-5.5 4.96-2.02 10.95-2.02 6.05 0 10.88 1.91 4.82 1.91 8.23 5.34 3.4 3.43 5.23 8.23 1.82 4.79 1.82 10.52 0 3.65-.62 6.92-.63 3.27-1.77 6.29-1.15 3.03-2.78 5.92-1.64 2.89-3.66 5.72l-18.04 25.72q-.92 1.31-2.77 2.21-1.86.9-4.2.9zm69.81-55.15q0 6.59 3.41 10.05 3.4 3.46 9.67 3.46 3.27 0 5.83-1.03 2.56-1.04 4.31-2.84 1.74-1.8 2.64-4.25t.9-5.29q0-3.21-.98-5.74-.98-2.54-2.78-4.28-1.8-1.75-4.28-2.67-2.48-.93-5.42-.93-3.05 0-5.5 1.01-2.46 1.01-4.2 2.8-1.75 1.8-2.67 4.28-.93 2.48-.93 5.43m-6.59 55.15 24.47-30.57q.92-1.15 1.74-2.24t1.58-2.18q-2.72 1.75-5.99 2.64-3.27.9-6.87.9-4.09 0-8.01-1.41-3.93-1.42-6.98-4.28t-4.93-7.09q-1.88-4.22-1.88-9.89 0-5.29 1.96-9.92t5.51-8.12q3.54-3.49 8.5-5.5 4.96-2.02 10.95-2.02 6.05 0 10.88 1.91 4.82 1.91 8.23 5.34 3.4 3.43 5.23 8.23 1.82 4.79 1.82 10.52 0 3.65-.62 6.92-.63 3.27-1.77 6.29-1.15 3.03-2.78 5.92-1.64 2.89-3.66 5.72l-18.04 25.72q-.92 1.31-2.77 2.21-1.86.9-4.2.9z"/></svg>