<?xml version="1.0" encoding="UTF-8" standalone="no"?>
<!-- Created with Inkscape (http://www.inkscape.org/) -->

<svg
   version="1.1"
   id="svg1"
   width="144"
   height="144"
   viewBox="0 0 144 144"
   sodipodi:docname="apple-touch-icon-114x114.png"
   inkscape:version="1.3.2 (091e20e, 2023-11-25, custom)"
   xmlns:inkscape="http://www.inkscape.org/namespaces/inkscape"
   xmlns:sodipodi="http://sodipodi.sourceforge.net/DTD/sodipodi-0.dtd"
   xmlns="http://www.w3.org/2000/svg"
   xmlns:svg="http://www.w3.org/2000/svg">
  <defs
     id="defs1" />
  <sodipodi:namedview
     id="namedview1"
     pagecolor="#ffffff"
     bordercolor="#000000"
     borderopacity="0.25"
     inkscape:showpageshadow="2"
     inkscape:pageopacity="0.0"
     inkscape:pagecheckerboard="0"
     inkscape:deskcolor="#d1d1d1"
     inkscape:zoom="2.8229167"
     inkscape:cx="-26.391144"
     inkscape:cy="30.287823"
     inkscape:window-width="1920"
     inkscape:window-height="1009"
     inkscape:window-x="-8"
     inkscape:window-y="-8"
     inkscape:window-maximized="1"
     inkscape:current-layer="g1" />
  <g
     inkscape:groupmode="layer"
     inkscape:label="Image"
     id="g1">
    <path
       style="fill:#000000;stroke-width:0.277614"
       d="m 68.027885,118.84729 c -0.05797,-0.19086 -0.239112,-3.09539 -0.402498,-6.45452 -0.320563,-6.58981 -0.753057,-8.95627 -2.233633,-12.22161 -1.077605,-2.376577 -3.409805,-5.769613 -5.386089,-7.835969 -1.681787,-1.758453 -1.810366,-2.249512 -0.290754,-1.110461 2.956924,2.216409 6.409502,7.929971 7.590932,12.56202 0.569913,2.23442 1.110724,8.30915 1.118372,12.56202 l 0.0045,2.2903 h 1.526868 1.526883 v -1.96066 c 0,-3.15053 0.557637,-9.95073 0.988854,-12.05882 0.727028,-3.55422 3.403224,-8.405701 6.355246,-11.520971 1.79867,-1.89814 2.648776,-3.074195 2.651806,-3.668613 7.47e-4,-0.196234 0.255886,-0.731559 0.566368,-1.189616 l 0.56453,-0.832849 -0.183424,0.832849 c -0.391124,1.775934 -1.26344,3.257594 -3.267278,5.549631 -2.076892,2.375601 -4.086012,5.489258 -5.147805,7.977879 -0.944259,2.21312 -1.395571,5.16905 -1.744717,11.42703 l -0.334709,5.99938 h -1.898836 c -1.277764,0 -1.933302,-0.11349 -2.004227,-0.34702 z m -11.938333,-0.43843 c -0.477615,-1.50482 -3.058098,-2.87303 -8.536694,-4.52629 -6.447362,-1.94559 -9.671397,-3.79002 -13.135303,-7.51457 -4.37601,-4.70528 -6.511413,-10.289288 -7.077107,-18.50643 -0.542515,-7.880408 0.291574,-10.90064 2.670629,-9.670386 2.006533,1.037612 2.533821,2.359023 2.863562,7.176147 0.397004,5.799635 0.923032,8.129311 2.591975,11.479075 2.291034,4.598394 6.082341,7.753984 11.487595,9.561374 3.783697,1.2652 6.886206,1.1125 6.339581,-0.31197 -0.203916,-0.53139 -2.384697,-1.80849 -6.084528,-3.56314 -3.702791,-1.75606 -5.987079,-3.842014 -5.987079,-5.467275 0,-1.155666 1.267319,-2.578706 2.296529,-2.578706 0.599022,0 6.351391,2.607898 12.116729,5.493242 3.966248,1.984959 6.815446,5.437679 7.952274,9.636699 0.613622,2.26649 0.883704,8.58396 0.380276,8.89508 -0.201881,0.12478 -2.015827,0.28279 -4.030991,0.35113 -3.523129,0.11948 -3.670974,0.10208 -3.847448,-0.45398 z m 7.468268,-1.32896 c 0.103563,-0.55215 0.105622,-1.83266 0.0045,-2.84554 -0.783123,-7.84533 -3.040006,-11.00971 -10.336631,-14.492894 -2.250349,-1.074241 -5.21586,-2.511192 -6.59005,-3.193205 -2.88538,-1.432036 -3.492149,-1.502487 -4.282865,-0.497256 -0.812206,1.032544 -0.752182,1.231602 0.882093,2.925774 1.196313,1.240151 2.192648,1.870081 5.560228,3.515401 4.472062,2.18493 5.197321,2.72089 5.197321,3.84064 0,1.75433 -1.932729,2.22889 -5.42454,1.33191 -7.704291,-1.9791 -12.747696,-6.44608 -14.95181,-13.242969 -0.94168,-2.903891 -1.25262,-4.774061 -1.520013,-9.142123 -0.15358,-2.508748 -0.373362,-3.985743 -0.681906,-4.582341 -0.459879,-0.889228 -1.807894,-2.034585 -2.394585,-2.034585 -1.473942,0 -1.53908,9.674769 -0.10471,15.546367 0.561847,2.299865 2.376795,6.889951 3.306963,8.363441 1.237655,1.96055 5.087572,5.72491 7.298039,7.13578 2.361401,1.50724 5.091162,2.62348 9.558676,3.90868 3.698525,1.06402 5.361444,1.88882 6.739033,3.34257 l 1.065366,1.1243 h 3.243266 3.243267 z m 12.211196,-1.00874 c 0.456061,-6.6806 1.804441,-10.42194 4.846235,-13.44679 1.546624,-1.538 2.84927,-2.27227 6.984977,-3.937223 1.899484,-0.764697 4.702873,-1.959569 6.229763,-2.655255 3.183506,-1.450518 4.181447,-1.562392 5.234116,-0.586809 1.189223,1.102139 1.045263,2.726672 -0.356333,4.020604 -1.579175,1.457903 -5.014739,3.339473 -7.990735,4.376343 -3.913422,1.36349 -4.266372,1.68576 -3.297487,3.01079 0.383904,0.52501 0.44654,0.52561 3.400762,0.0322 7.838034,-1.30884 12.706456,-4.51201 15.687536,-10.321555 1.57458,-3.068524 2.12374,-5.435523 2.47338,-10.660569 0.37434,-5.594143 0.37876,-5.612069 1.70466,-6.92484 1.80116,-1.783333 3.5277,-1.315132 3.9554,1.072629 0.28503,1.59131 -0.33368,10.242594 -0.94815,13.257903 -1.56428,7.676042 -5.68278,13.705702 -11.64643,17.050862 -2.221299,1.246 -3.624322,1.75517 -10.992871,3.98944 -4.076808,1.23615 -6.177266,2.31491 -7.012285,3.60143 l -0.627186,0.96628 h -3.919803 -3.919804 z m 7.702019,1.30107 c 1.319108,-1.70855 2.95502,-2.48905 8.712107,-4.15644 5.870915,-1.70037 8.294328,-2.66984 10.858878,-4.34398 7.19433,-4.6965 10.91496,-13.617263 10.91496,-26.17015 0,-4.147596 -0.92112,-5.098872 -2.85958,-2.953233 -1.07337,1.188083 -1.1328,1.469539 -1.45715,6.900032 -0.49529,8.292587 -3.52347,14.085841 -9.32165,17.833391 -2.450713,1.58396 -9.455283,3.60791 -12.486401,3.60791 -0.842745,0 -1.35898,-0.79575 -1.35898,-2.0948 0,-1.43417 0.287254,-1.63867 4.123194,-2.9353 3.671988,-1.24121 7.883299,-3.824181 8.384556,-5.142587 0.484503,-1.274337 -0.615784,-2.596504 -1.958422,-2.353372 -0.229042,0.04147 -1.915541,0.743196 -3.747784,1.559385 -1.832262,0.816179 -4.623634,1.997219 -6.203061,2.62454 -4.749208,1.886294 -6.723418,3.476334 -8.461781,6.815264 -0.911002,1.74982 -1.801216,5.44391 -2.006971,8.32841 -0.08721,1.22149 -0.208627,2.47468 -0.269982,2.78482 -0.107353,0.5427 0.01322,0.56294 3.198545,0.53765 l 3.310105,-0.0264 z M 0.53005111,106.17101 c -0.0644334,-0.0645 -0.11707696,-1.39556 -0.11707696,-2.95814 v -2.84105 l 2.56791445,-0.11477 c 1.4123687,-0.0632 2.6529657,-0.0443 2.7568832,0.0417 0.1038802,0.0861 0.2288508,1.45249 0.2776192,3.03643 l 0.088682,2.87985 -2.7284477,0.0366 c -1.5006455,0.02 -2.7811437,-0.0162 -2.84554279,-0.0806 z m 4.92795039,-2.97497 -0.090863,-2.39648 -1.4360465,0.17251 c -0.7898316,0.0948 -1.7795957,0.17361 -2.1994835,0.17494 l -0.76344721,0.002 v 2.22092 2.22088 l 2.29031351,5.7e-4 2.2903224,5.6e-4 z m 2.9102428,3.01984 c -0.070635,-0.11453 -0.2182788,-1.4791 -0.328256,-3.03239 l -0.1999415,-2.82417 2.4633692,-0.0955 c 1.354849,-0.0524 2.619517,-0.0487 2.810372,0.008 0.250031,0.0748 0.347022,0.94906 0.347022,3.12787 v 3.02404 h -2.482134 c -1.3651769,0 -2.539871,-0.0937 -2.6104317,-0.20821 z m 4.4362727,-1.91265 c -0.09706,-0.7084 -0.176546,-1.77028 -0.176546,-2.35972 v -1.0717 H 10.684679 8.7413876 v 2.35972 2.3597 h 2.1198274 2.119838 z m 116.080743,1.96545 c -0.29839,-0.2984 0.11402,-5.79149 0.45177,-6.01726 0.16783,-0.11218 1.52314,-0.20586 3.01186,-0.2082 l 2.70672,-0.005 v 3.05375 3.05374 l -2.42912,0.005 c -1.33601,0.002 -2.68215,0.0717 -2.9914,0.15488 -0.30926,0.0831 -0.64669,0.0667 -0.74983,-0.0366 z m 5.55711,-3.31093 0.0808,-2.44215 -1.29941,0.17812 c -0.71465,0.0979 -1.84412,0.17809 -2.50991,0.17809 h -1.2105 v 2.29821 2.2982 l 2.42911,-0.0341 2.42913,-0.0342 z m 3.63654,3.28247 c -0.45168,-0.12074 -0.79571,-2.26373 -0.80041,-4.98564 l -0.002,-1.14408 2.70803,-0.191996 c 3.84799,-0.272817 3.67706,-0.428209 3.67706,3.342716 v 3.16286 l -2.56792,-0.0322 c -1.41237,-0.0177 -2.76903,-0.0858 -3.01482,-0.15165 z m 4.92487,-1.27362 c -0.092,-0.34354 -0.1691,-1.46787 -0.17119,-2.49851 l -0.005,-1.8739 -2.42912,-5.6e-4 -2.42911,-5.6e-4 0.0891,2.49915 0.0891,2.49916 h 2.51119 c 2.46874,0 2.50837,-0.0106 2.34382,-0.62462 z M 0.20169512,97.332232 C 0.09507092,97.06503 0.00530749,95.659607 0.00219085,94.209079 L -0.0032625,91.571752 h 2.6843077 c 1.4763759,0 2.7852189,0.101256 2.9085483,0.22495 0.1233304,0.123721 0.272516,1.529136 0.33152,3.123146 l 0.1072888,2.898203 H 3.2120551 c -2.42330378,0 -2.84338348,-0.06772 -3.01017718,-0.485819 z M 5.2686682,94.972516 C 5.1591374,93.712844 5.013834,92.588502 4.9457709,92.473986 4.8776896,92.359469 3.8121798,92.26577 2.5779525,92.26577 H 0.33387455 l 0.17835939,1.70642 c 0.0981044,0.938525 0.17835034,1.99123 0.17835034,2.339364 0,0.760549 0.36281672,0.87656 2.87443482,0.919067 l 1.9027797,0.03226 z m 3.086853,2.420024 C 8.005373,97.04239 7.9085471,96.355584 7.9085471,94.222258 v -2.723299 l 2.6648679,-0.199777 c 1.723282,-0.129208 2.765824,-0.09884 2.950573,0.08594 0.191074,0.191065 0.204936,1.280645 0.04184,3.28993 l -0.243836,3.004253 -2.259744,0.08012 C 9.2782948,97.822675 8.7083832,97.745485 8.3555182,97.39258 Z m 4.3995618,-0.754343 c 0.06034,-0.190864 0.162564,-1.315195 0.22721,-2.49853 l 0.117523,-2.151499 h -2.162837 c -1.18955,0 -2.2410977,0.126638 -2.3367754,0.281438 -0.09569,0.154782 -0.086854,1.279122 0.019502,2.498521 l 0.1933973,2.217083 h 1.9161681 c 1.289357,0 1.952041,-0.113513 2.025846,-0.347013 z m 56.471049,0.694035 C 69.00685,97.06503 68.366642,96.159314 67.803464,95.31953 66.37995,93.196867 64.152368,90.70489 61.734485,88.530214 c -2.271346,-2.042889 -2.739902,-2.716445 -1.337541,-1.922668 1.536709,0.869816 6.431129,5.976127 7.900704,8.242725 1.570624,2.422502 1.914319,2.517552 2.865869,0.792584 0.363291,-0.658563 0.927124,-1.329331 1.252974,-1.49062 0.32585,-0.16128 1.267566,-1.057727 2.092678,-1.992088 0.825122,-0.934369 2.511636,-2.602994 3.747796,-3.70805 3.188911,-2.850719 3.219209,-2.875236 3.219209,-2.60396 0,0.134796 -2.247153,2.539634 -4.993673,5.344065 -2.746529,2.804431 -5.299543,5.442514 -5.673388,5.86242 -0.794735,0.892655 -1.042562,0.93611 -1.582981,0.27761 z m 61.040658,0.0045 -1.31867,-0.103981 v -3.186454 -3.186423 l 3.12315,0.07847 3.12315,0.07847 0.0783,3.26196 0.0782,3.261959 -1.8827,-0.05003 c -1.0355,-0.02753 -2.47612,-0.09687 -3.20138,-0.154008 z M 134.778,95.07697 c 0,-1.049725 -0.0781,-2.29899 -0.1735,-2.776132 l -0.17351,-0.867537 h -2.46382 -2.46382 v 2.62516 2.625169 l 2.0127,0.09581 c 1.10697,0.05269 2.29376,0.120632 2.63732,0.150972 0.59254,0.05241 0.62463,-0.04293 0.62463,-1.853447 z m 3.23879,2.053981 c -0.59619,-0.596197 -0.95826,-5.666707 -0.42859,-6.002192 0.21029,-0.133209 1.64828,-0.244107 3.19552,-0.246449 2.68437,-0.0045 2.82082,0.02433 2.98055,0.620384 0.21875,0.816173 0.2236,5.033145 0.006,5.598964 -0.23681,0.617142 -5.14113,0.642095 -5.75395,0.02926 z m 5.08961,-3.099886 v -2.676899 l -1.70639,0.17835 c -0.93853,0.0981 -2.06286,0.17836 -2.49852,0.17836 h -0.79213 v 2.059394 c 0,3.002148 -0.0585,2.937649 2.66704,2.937649 h 2.33 z M 85.154555,92.22773 c -1.869558,-0.361121 -1.873578,-0.715043 -0.03443,-3.029218 2.141734,-2.694962 3.231377,-3.778326 5.501726,-5.470101 2.721049,-2.027613 3.665807,-3.075634 3.565188,-3.954853 -0.131704,-1.151037 -1.410809,-1.056561 -3.985622,0.294369 -3.522589,1.848206 -8.977626,4.992513 -9.152576,5.275592 -0.297899,0.482018 -1.238322,0.286542 -1.238322,-0.257414 0,-2.143014 1.503034,-6.176103 2.946929,-7.907495 3.931702,-4.714602 8.608932,-6.418362 17.148233,-6.246563 5.777069,0.11622 5.862069,0.153369 5.589719,2.441842 -1.46575,12.315677 -10.558196,20.743433 -20.340817,18.853841 z m 7.070024,-1.114981 c 3.233578,-1.346147 5.948327,-3.302754 7.714691,-5.56023 2.64994,-3.386737 4.59402,-8.298528 4.67468,-11.81071 l 0.043,-1.871592 -1.24926,-0.191959 c -2.2154,-0.340413 -7.356593,-0.244663 -9.806953,0.182644 -6.721012,1.172043 -11.428167,5.273833 -12.776714,11.133537 l -0.389859,1.694008 1.839682,-1.03724 c 10.642362,-6.000349 11.45281,-6.317095 12.413221,-4.851318 0.916359,1.398531 -0.02959,2.793529 -3.781434,5.576405 -1.348598,1.000319 -2.903413,2.369623 -3.455137,3.042942 -0.551713,0.673301 -1.215923,1.435226 -1.47601,1.693159 -0.657292,0.651866 -1.72214,2.10892 -1.72214,2.356435 0,0.282294 1.134755,0.429029 3.697682,0.478135 1.862317,0.03572 2.469759,-0.08293 4.274592,-0.834216 z m -3.530446,-1.637318 c 1.145157,-0.114635 2.5818,-0.278933 3.192545,-0.365114 0.977771,-0.137965 0.944585,-0.111244 -0.2776,0.223676 -0.763435,0.209191 -2.200088,0.373497 -3.192565,0.365111 l -1.80449,-0.01522 z M 49.865966,91.829075 C 43.791538,90.195111 38.837477,85.089366 37.075899,78.647401 c -0.740343,-2.707431 -1.12393,-6.274698 -0.730282,-6.791549 0.823881,-1.081697 8.541916,-1.354796 12.157178,-0.430178 6.525093,1.668834 11.292913,6.501269 12.205426,12.370826 0.366808,2.359406 0.236215,2.67494 -0.827736,1.999933 -0.413718,-0.26248 -2.001475,-1.17833 -3.528351,-2.035233 -1.526885,-0.856882 -3.525698,-2.034875 -4.441831,-2.61774 -2.030839,-1.292082 -4.599848,-2.501235 -4.908674,-2.310363 -0.377454,0.233271 -0.256357,1.221823 0.255901,2.088995 0.265698,0.449782 1.453801,1.630355 2.640253,2.623492 2.816898,2.357948 6.639583,6.729254 6.533615,7.47133 -0.149441,1.0467 -3.94709,1.516477 -6.565432,0.812161 z m 4.387894,-0.418212 c 0.769591,-0.165043 1.474817,-0.422366 1.567196,-0.571835 0.09234,-0.149469 -2.092705,-2.503844 -4.855749,-5.231936 -3.990764,-3.940318 -5.023691,-5.110794 -5.023691,-5.692719 0,-1.06767 0.48661,-1.806518 1.189622,-1.80628 0.748528,1.9e-4 3.670045,1.356344 5.272101,2.447137 0.644957,0.439126 2.484377,1.518125 4.087601,2.397749 1.603213,0.879639 3.117357,1.778081 3.364773,1.996543 0.73656,0.650415 0.114607,-2.160321 -1.008074,-4.555655 -2.837724,-6.054524 -9.503611,-9.377956 -17.743619,-8.846522 -4.283566,0.27627 -4.32366,0.292192 -4.32366,1.716454 0,2.47529 1.129381,6.58767 2.613466,9.516388 1.978891,3.905147 6.219022,7.282918 10.711991,8.533377 1.606541,0.447129 2.426976,0.466359 4.148043,0.09728 z M 47.994365,88.64175 c -0.886941,-0.46656 -2.257376,-1.399117 -3.045422,-2.072364 -0.788026,-0.673236 -1.531733,-1.134757 -1.652647,-1.025599 -0.120907,0.109157 -0.128608,0.04011 -0.01714,-0.153479 0.119886,-0.208099 -0.146241,-0.792565 -0.65118,-1.430103 -1.042671,-1.316481 -2.860937,-4.950088 -3.813844,-7.621574 -0.388145,-1.088195 -0.952271,-2.384533 -1.253586,-2.880752 -0.461976,-0.760767 -0.477178,-0.875082 -0.09696,-0.729196 0.535799,0.205611 1.274893,1.609312 1.955257,3.713519 1.818896,5.625339 5.078777,9.811159 9.261645,11.892308 1.61507,0.803584 2.109856,1.155529 1.624467,1.155529 -0.383896,0 -1.423678,-0.381729 -2.310601,-0.848289 z m 23.48772,-2.899489 c -0.381719,-0.218215 -0.561754,-0.401186 -0.400083,-0.406591 0.16168,-0.0045 0.536454,0.173574 0.832841,0.39775 0.68543,0.518438 0.466496,0.522894 -0.432758,0.0082 z M 9.0189977,81.703111 c 0,-0.6694 3.2329223,-4.020494 18.0773793,-18.738141 6.013284,-5.961924 13.306846,-13.074147 16.207902,-15.804946 2.901075,-2.730799 10.124333,-9.752083 16.05169,-15.602846 5.927374,-5.850772 10.909351,-10.637767 11.071069,-10.637767 0.161727,0 2.311668,1.96759 4.777652,4.37242 2.465984,2.404829 6.596428,6.308765 9.178765,8.675426 6.5468,6.000013 10.024791,9.304371 11.806254,11.216829 0.839776,0.901533 2.266441,2.187555 3.170357,2.857812 2.197234,1.629251 2.387774,1.434159 2.623964,-2.686516 0.0977,-1.706392 0.12499,-3.155363 0.0604,-3.219934 -0.0646,-0.06462 -0.89328,-0.117396 -1.84162,-0.117396 -1.053626,0 -1.826817,-0.13496 -1.987991,-0.347013 -0.151106,-0.19874 -0.19528,-1.473961 -0.103387,-2.98435 l 0.160377,-2.637336 2.320271,-0.238966 c 1.27616,-0.131443 3.47515,-0.152394 4.88668,-0.04656 l 2.56635,0.192413 0.15714,4.305249 c 0.0864,2.367891 0.0891,6.636338 0.006,9.485437 -0.0998,3.419002 -0.0457,5.564831 0.15911,6.311573 0.26492,0.965885 1.99612,2.819732 11.83365,12.672077 6.33781,6.347373 11.52329,11.651938 11.52329,11.787937 0,0.135998 -1.502,0.40524 -3.33779,0.598311 -3.99141,0.419778 -3.50579,0.654317 -7.75961,-3.747668 -1.59929,-1.655 -5.41292,-5.570082 -8.47475,-8.700181 -3.06182,-3.130089 -6.6879,-6.921851 -8.05795,-8.426132 -1.37003,-1.504283 -4.239934,-4.305697 -6.377579,-6.225355 -2.13718,-1.919673 -4.885558,-4.451915 -6.107056,-5.627221 -1.221419,-1.175319 -3.657477,-3.358106 -5.413368,-4.850659 -4.322595,-3.674136 -11.707887,-10.60203 -13.712351,-12.862925 -0.899782,-1.0149 -1.743751,-1.887157 -1.875491,-1.938349 -0.131753,-0.05123 -3.268569,2.884568 -6.97073,6.523917 -3.702135,3.63935 -7.917667,7.741968 -9.367831,9.116924 -4.166489,3.95039 -20.32493,19.660233 -23.858977,23.196595 -5.127225,5.13057 -13.928352,13.334396 -14.563,13.574658 -0.320155,0.121207 -1.643972,0.304761 -2.941815,0.407902 -1.297842,0.103135 -2.703256,0.253387 -3.1231531,0.333882 -0.4923535,0.09443 -0.7634384,0.02725 -0.7634384,-0.189088 z M 14.473195,80.727045 C 16.017287,80.531068 16.276333,80.297697 32.893779,64.13201 52.970681,44.600895 54.303277,43.309615 61.071557,36.827685 c 3.359124,-3.21701 6.950769,-6.726085 7.981401,-7.797947 1.030649,-1.071863 1.889518,-1.898524 1.908603,-1.837023 0.01905,0.06152 0.05422,0.20551 0.0782,0.320027 0.259127,1.240588 9.2339,10.236214 16.033014,16.070282 5.591236,4.79762 11.462889,10.189031 15.363245,14.106657 4.29326,4.312284 17.51663,17.982457 19.45606,20.113458 2.41177,2.649996 3.13062,3.039598 5.02439,2.723099 0.88837,-0.148457 2.11974,-0.276936 2.73635,-0.285495 l 1.12113,-0.01549 -1.53755,-1.430697 c -0.84565,-0.78685 -3.09914,-3.033872 -5.00772,-4.993341 -1.90858,-1.959479 -6.30961,-6.373265 -9.78005,-9.808427 -4.55407,-4.507787 -6.40202,-6.522204 -6.64105,-7.239261 -0.23593,-0.707706 -0.31453,-3.768639 -0.27326,-10.640582 l 0.0579,-9.647072 h -4.27689 -4.276893 l -0.172072,1.041048 c -0.09463,0.572583 -0.173444,1.634448 -0.175122,2.359716 l -0.003,1.318667 h 1.952027 c 1.47719,0 1.9908,0.101074 2.11147,0.415552 0.22831,0.595002 -0.46286,7.151021 -0.79765,7.565841 -0.94981,1.176893 -3.371451,-0.31421 -7.051418,-4.341867 C 94.011304,43.849156 91.593848,41.543358 89.530636,39.70084 84.245388,34.980952 78.936215,30.029571 74.325348,25.520286 l -3.958399,-3.871198 -0.905088,0.953875 C 67.309825,24.870973 47.339316,44.360839 42.749183,48.672724 38.38751,52.770012 11.813546,79.036881 10.970917,80.083771 l -0.808278,1.004201 1.579754,-0.107361 c 0.868861,-0.05906 2.097782,-0.173129 2.730937,-0.253487 z M 125.99813,78.358899 c -3.72535,-2.819724 -23.97854,-22.003217 -23.97854,-22.712107 0,-0.326088 1.56885,1.124513 8.98728,8.30983 5.6775,5.499084 12.90204,12.158381 15.51212,14.298432 1.49284,1.224002 1.7783,1.518427 1.47217,1.518427 -0.0684,0 -0.96511,-0.636562 -1.99303,-1.414582 z M 93.535901,47.762883 c -1.688631,-1.556459 -4.374546,-3.888241 -5.968707,-5.181737 -1.594142,-1.293504 -4.345419,-3.760892 -6.113935,-5.483089 -1.768505,-1.722204 -3.27616,-3.070584 -3.350347,-2.996405 -0.07419,0.07419 -0.563559,-0.319261 -1.087529,-0.874311 -0.523979,-0.555056 -0.796522,-0.920587 -0.605658,-0.812295 0.190855,0.108282 0.347013,0.0932 0.347013,-0.03354 0,-0.28615 -4.621457,-4.84217 -5.503258,-5.425342 -0.364904,-0.241329 -0.522702,-0.50217 -0.363353,-0.600654 0.387715,-0.239623 2.088758,1.320281 8.968073,8.224004 3.256542,3.268093 7.170257,6.924995 8.697118,8.126449 3.547039,2.791078 8.961296,8.047886 8.139113,7.902419 -0.04858,-0.0082 -1.469911,-1.289085 -3.15853,-2.845535 z M 78.144809,33.876492 c 0,-0.04977 -0.34354,-0.393276 -0.763438,-0.763438 l -0.763437,-0.673028 0.673019,0.763438 c 0.629042,0.713547 0.853856,0.890751 0.853856,0.673028 z M 67.537812,79.323755 c -4.739956,-4.35504 -8.585245,-8.519323 -9.326253,-10.099908 -1.021553,-2.178996 -1.191656,-5.534 -0.362944,-7.158393 1.415748,-2.775085 3.504161,-4.09521 6.415498,-4.055347 2.237362,0.03064 3.906835,1.141075 5.580125,3.711587 l 0.44425,0.682471 0.716263,-1.134641 c 2.512421,-3.979937 7.200301,-4.6095 10.338446,-1.388407 1.629348,1.672407 2.076271,2.8934 2.076271,5.672303 0,2.95749 -0.917732,4.452358 -5.691084,9.270028 -4.2354,4.274727 -6.888448,6.615395 -7.498252,6.615395 -0.21467,0 -1.426204,-0.951785 -2.69232,-2.115088 z m 4.597661,-0.131324 c 2.565645,-2.12545 9.214228,-9.193535 9.939933,-10.567096 1.752891,-3.317746 0.06645,-8.430235 -3.185232,-9.656168 -2.829349,-1.066712 -5.784505,0.238002 -7.664162,3.38374 -0.754771,1.263165 -1.253559,1.315267 -1.834608,0.19162 -0.676792,-1.30877 -2.391834,-3.080965 -3.383276,-3.496024 -3.762213,-1.574996 -8.548368,2.155847 -8.037313,6.265139 0.386002,3.10375 0.928756,4.144826 3.606355,6.917494 3.195821,3.309288 8.443496,8.374868 8.675947,8.374868 0.09686,0 0.943875,-0.636109 1.882356,-1.413573 z m -6.910131,-4.485713 -1.377645,-1.457473 1.457473,1.377634 c 0.801608,0.757696 1.457474,1.413553 1.457474,1.457465 0,0.207159 -0.257195,-0.02333 -1.537302,-1.377626 z M 52.495336,62.769323 c 0.542708,-3.164724 3.565945,-7.114702 6.714236,-8.772444 3.300155,-1.7377 7.958951,-1.756867 10.093481,-0.04147 l 1.075225,0.864074 1.819123,-0.895545 c 3.419375,-1.683354 7.387929,-1.444987 10.597133,0.636517 2.877397,1.866279 4.828216,4.761531 5.203808,7.723084 l 0.158437,1.249269 -0.53003,-1.583035 c -0.887393,-2.650415 -3.099723,-5.976281 -3.720253,-5.592776 -0.162356,0.100347 -0.224942,0.06882 -0.139078,-0.07018 0.260158,-0.420944 -3.215651,-2.322003 -4.88603,-2.67237 -2.424698,-0.508585 -5.354536,0.133145 -7.846186,1.718578 -0.526403,0.334946 -0.719207,0.270712 -1.904967,-0.634685 -1.551065,-1.184319 -2.435991,-1.392591 -5.345506,-1.258069 -4.570155,0.211287 -9.486211,4.294594 -10.653405,8.848792 -0.392873,1.532891 -0.879521,1.900401 -0.635988,0.480276 z m -0.836769,-5.482871 c 0.731558,-2.88857 5.095391,-7.626066 8.639317,-9.379058 3.462949,-1.712936 5.665013,-2.103533 10.871958,-1.928464 7.594751,0.255354 10.82693,1.547593 15.511584,6.201595 1.565045,1.554801 2.845544,3.047956 2.845544,3.318111 0,0.316709 -1.158782,-0.642205 -3.261958,-2.69931 -5.002508,-4.892935 -8.651418,-6.333939 -16.032192,-6.331342 -6.322509,0.0018 -10.326116,1.494749 -13.911126,5.185994 -1.153041,1.187207 -2.554837,2.868209 -3.115107,3.735564 -1.716938,2.657998 -1.751489,2.700339 -1.54802,1.89691 z"
       id="path1"
       inkscape:export-filename="path1.png"
       inkscape:export-xdpi="96"
       inkscape:export-ydpi="96" />
  </g>
</svg>
