<svg xmlns="http://www.w3.org/2000/svg" width="1920" height="939" viewBox="0 0 1920 939"><rect width="100%" height="100%" fill="#DDDDDD"/><path fill="#999999" d="M468.935 530.025h29.25v20.81h-90v-20.81h32.97v-94.84q0-5.63.33-11.59l-23.4 19.58q-2.02 1.57-3.99 1.97-1.97.39-3.71.05-1.75-.34-3.1-1.18t-2.02-1.85l-8.78-12.04 49.62-42.19h22.83zm80.44-93.04q0 13.61 7.03 20.76 7.03 7.14 19.97 7.14 6.75 0 12.04-2.14t8.89-5.85 5.45-8.77q1.86-5.07 1.86-10.92 0-6.63-2.03-11.86-2.02-5.23-5.73-8.84-3.72-3.6-8.84-5.51-5.11-1.91-11.19-1.91-6.3 0-11.36 2.08t-8.66 5.79q-3.6 3.72-5.52 8.84-1.91 5.12-1.91 11.19m-13.61 113.85 50.51-63.11q1.91-2.37 3.6-4.62t3.26-4.5q-5.62 3.6-12.37 5.46t-14.18 1.86q-8.43 0-16.53-2.93-8.1-2.92-14.4-8.83t-10.19-14.62q-3.88-8.72-3.88-20.42 0-10.92 4.05-20.48t11.37-16.76q7.31-7.2 17.55-11.36 10.23-4.16 22.61-4.16 12.49 0 22.44 3.93 9.96 3.94 16.99 11.03 7.03 7.08 10.8 16.98t3.77 21.72q0 7.53-1.3 14.28-1.29 6.75-3.65 13-2.36 6.24-5.74 12.2-3.37 5.97-7.54 11.82l-37.23 53.1q-1.92 2.7-5.74 4.55-3.83 1.86-8.66 1.86zm175.61-25.88h41.74q4.5 0 7.14 2.54 2.65 2.53 2.65 6.69v16.65h-111.6v-9.22q0-2.82 1.18-5.91 1.18-3.1 3.77-5.57l49.38-49.5q6.19-6.3 11.08-12.04 4.9-5.74 8.16-11.36 3.26-5.63 5.01-11.42 1.74-5.79 1.74-12.21 0-5.85-1.69-10.29-1.68-4.44-4.78-7.48-3.09-3.04-7.42-4.56t-9.73-1.52q-4.95 0-9.17 1.41t-7.48 3.94q-3.27 2.53-5.52 5.9-2.25 3.38-3.37 7.43-1.91 5.17-4.95 6.86t-8.78.79l-14.62-2.59q1.69-11.7 6.52-20.53 4.84-8.83 12.1-14.74 7.25-5.9 16.65-8.88 9.39-2.98 20.19-2.98 11.25 0 20.59 3.31 9.34 3.32 15.97 9.4 6.64 6.07 10.35 14.62 3.72 8.55 3.72 19.01 0 9-2.65 16.65-2.64 7.65-7.09 14.63-4.44 6.97-10.4 13.5-5.96 6.52-12.49 13.27l-36.67 37.47q5.28-1.58 10.51-2.42 5.24-.85 9.96-.85m186.75-55.46q0 21.26-4.56 36.96-4.55 15.69-12.6 25.93-8.04 10.24-19.01 15.24-10.97 5.01-23.68 5.01t-23.57-5.01q-10.85-5-18.84-15.24t-12.49-25.93q-4.5-15.7-4.5-36.96 0-21.37 4.5-37.01t12.49-25.87q7.99-10.24 18.84-15.25 10.86-5 23.57-5t23.68 5q10.97 5.01 19.01 15.25 8.05 10.23 12.6 25.87 4.56 15.64 4.56 37.01m-28.69 0q0-17.66-2.58-29.25-2.59-11.58-6.92-18.45-4.33-6.86-9.96-9.62-5.62-2.75-11.7-2.75-5.96 0-11.53 2.75-5.57 2.76-9.84 9.62-4.28 6.87-6.81 18.45-2.53 11.59-2.53 29.25t2.53 29.25 6.81 18.45q4.27 6.86 9.84 9.62t11.53 2.76q6.08 0 11.7-2.76 5.63-2.76 9.96-9.62t6.92-18.45q2.58-11.59 2.58-29.25m207.34 44.1-14.74 14.51-38.13-38.13-38.48 38.36-14.74-14.51 38.48-38.59-36.68-36.68 14.63-14.62 36.67 36.67 36.45-36.44 14.85 14.62-36.56 36.56zm103.95-76.61q0 13.61 7.03 20.76 7.03 7.14 19.97 7.14 6.75 0 12.04-2.14t8.89-5.85 5.45-8.77q1.86-5.07 1.86-10.92 0-6.63-2.03-11.86-2.02-5.23-5.73-8.84-3.72-3.6-8.84-5.51-5.11-1.91-11.19-1.91-6.3 0-11.36 2.08t-8.66 5.79q-3.6 3.72-5.52 8.84-1.91 5.12-1.91 11.19m-13.61 113.85 50.51-63.11q1.91-2.37 3.6-4.62t3.26-4.5q-5.62 3.6-12.37 5.46t-14.18 1.86q-8.43 0-16.53-2.93-8.1-2.92-14.4-8.83t-10.19-14.62q-3.88-8.72-3.88-20.42 0-10.92 4.05-20.48t11.37-16.76q7.31-7.2 17.55-11.36 10.23-4.16 22.61-4.16 12.49 0 22.44 3.93 9.96 3.94 16.99 11.03 7.03 7.08 10.8 16.98t3.77 21.72q0 7.53-1.3 14.28-1.29 6.75-3.65 13-2.36 6.24-5.74 12.2-3.37 5.97-7.54 11.82l-37.23 53.1q-1.92 2.7-5.74 4.55-3.83 1.86-8.66 1.86zm133.76-114.75-14.62-2.59q1.68-11.7 6.52-20.53t12.09-14.74q7.26-5.9 16.65-8.88 9.4-2.98 20.2-2.98 11.25 0 20.3 3.2 9.06 3.21 15.47 8.89 6.42 5.68 9.85 13.33t3.43 16.54q0 7.76-1.75 13.67-1.74 5.9-5 10.29t-8.1 7.42q-4.84 3.04-10.91 5.07 14.62 4.61 21.82 14.06t7.2 23.74q0 12.15-4.5 21.48-4.5 9.34-12.15 15.7-7.65 6.35-17.72 9.62-10.07 3.26-21.32 3.26-12.26 0-21.37-2.81-9.11-2.82-15.86-8.33t-11.48-13.5q-4.72-7.98-8.1-18.45l12.26-5.06q4.84-2.03 9.06-1.07t6.13 4.56q2.03 3.93 4.44 7.76 2.42 3.82 5.8 6.81 3.37 2.98 7.93 4.83 4.56 1.86 10.86 1.86 7.08 0 12.37-2.31 5.29-2.3 8.83-6.02 3.55-3.71 5.29-8.26 1.74-4.56 1.74-9.17 0-5.85-1.23-10.63-1.24-4.78-5.18-8.16t-11.31-5.29q-7.36-1.91-19.74-1.91v-19.8q10.24-.11 16.99-1.91t10.74-5.01q4-3.21 5.57-7.71 1.58-4.5 1.58-9.89 0-11.48-6.42-17.44-6.41-5.97-17.1-5.97-4.95 0-9.11 1.41t-7.48 3.94-5.57 5.9q-2.25 3.38-3.37 7.43-1.92 5.17-5.01 6.86t-8.72.79m140.85.9q0 13.61 7.03 20.76 7.03 7.14 19.97 7.14 6.75 0 12.04-2.14t8.89-5.85 5.45-8.77q1.86-5.07 1.86-10.92 0-6.63-2.03-11.86-2.02-5.23-5.73-8.84-3.72-3.6-8.84-5.51-5.11-1.91-11.19-1.91-6.3 0-11.36 2.08t-8.66 5.79q-3.6 3.72-5.52 8.84-1.91 5.12-1.91 11.19m-13.61 113.85 50.51-63.11q1.91-2.37 3.6-4.62t3.26-4.5q-5.62 3.6-12.37 5.46t-14.18 1.86q-8.43 0-16.53-2.93-8.1-2.92-14.4-8.83t-10.19-14.62q-3.88-8.72-3.88-20.42 0-10.92 4.05-20.48t11.37-16.76q7.31-7.2 17.55-11.36 10.23-4.16 22.61-4.16 12.49 0 22.44 3.93 9.96 3.94 16.99 11.03 7.03 7.08 10.8 16.98t3.77 21.72q0 7.53-1.3 14.28-1.29 6.75-3.65 13-2.36 6.24-5.74 12.2-3.37 5.97-7.54 11.82l-37.23 53.1q-1.92 2.7-5.74 4.55-3.83 1.86-8.66 1.86z"/></svg>