<svg xmlns="http://www.w3.org/2000/svg" xmlns:xlink="http://www.w3.org/1999/xlink" viewBox="0,0,256,256" width="24px" height="24px" fill-rule="nonzero"><g fill="#46244e" fill-rule="nonzero" stroke="none" stroke-width="1" stroke-linecap="butt" stroke-linejoin="miter" stroke-miterlimit="10" stroke-dasharray="" stroke-dashoffset="0" font-family="none" font-weight="none" font-size="none" text-anchor="none" style="mix-blend-mode: normal"><g transform="scale(10.66667,10.66667)"><path d="M4.23828,2.98828c-0.50878,0.00013 -0.96673,0.30859 -1.15806,0.78003c-0.19132,0.47144 -0.07784,1.0118 0.28696,1.36645l6.86523,6.86523l-6.87109,6.86914c-0.3162,0.31608 -0.43973,0.77685 -0.32404,1.20871c0.11569,0.43186 0.45301,0.76918 0.88487,0.88487c0.43186,0.11569 0.89263,-0.00784 1.20871,-0.32404l6.86914,-6.87109l6.86523,6.86523c0.31352,0.32654 0.77908,0.45808 1.21713,0.34388c0.43805,-0.1142 0.78014,-0.45628 0.89433,-0.89433c0.1142,-0.43805 -0.01734,-0.90361 -0.34388,-1.21713l-6.86523,-6.86523l6.85742,-6.85742c0.32654,-0.31352 0.45808,-0.77908 0.34388,-1.21713c-0.1142,-0.43805 -0.45628,-0.78013 -0.89433,-0.89433c-0.43805,-0.1142 -0.90361,0.01734 -1.21713,0.34388l-6.85742,6.85742l-6.86523,-6.86523c-0.23538,-0.24222 -0.55874,-0.37889 -0.89648,-0.37891z"></path></g></g></svg>